<svg xmlns="http://www.w3.org/2000/svg" viewBox="0 0 258.81 335.9"><defs><style>.cls-1{fill:#00e4b4;}.cls-2{fill:#00cdb2;}.cls-3{fill:#fff;}</style></defs><title>Asset 1cyferlinx-standalone-v3</title><g id="Layer_2" data-name="Layer 2"><g id="Layer_1-2" data-name="Layer 1"><polygon class="cls-1" points="0 154.82 0 194.61 129.41 109.75 129.41 69.96 0 154.82"/><polygon class="cls-2" points="129.41 109.75 258.81 194.61 258.81 154.82 129.41 69.96 129.41 109.75"/><polygon class="cls-1" points="129.41 335.9 258.81 251.04 258.81 211.25 129.41 296.11 129.41 335.9"/><polygon class="cls-2" points="0 211.25 0 251.04 129.41 335.9 129.41 296.11 0 211.25"/><polygon class="cls-2" points="33.27 110.9 33.27 60.83 59.44 77.55 59.44 77.47 0 39.29 0 132.71 33.27 110.9"/><polygon class="cls-1" points="59.44 38.06 0 0 0 39.29 59.44 77.47 59.44 38.06"/><polygon class="cls-1" points="225.87 21.09 225.54 110.9 258.81 132.71 258.81 0 225.87 21.09"/><polygon class="cls-2" points="199.38 38.06 199.38 77.55 225.72 60.71 225.87 21.09 199.38 38.06"/><path class="cls-1" d="M129.41,241.71a42.17,42.17,0,0,0,42.17-42.17H87.24A42.17,42.17,0,0,0,129.41,241.71Z"/><path class="cls-2" d="M87.24,199.54h42.17V157.37A42.17,42.17,0,0,0,87.24,199.54Z"/><path id="_Compound_Path_" data-name=" Compound Path " class="cls-3" d="M158.82,295.83a2.17,2.17,0,0,0,2.4,3.62,2.7,2.7,0,0,0,1.07-1.7l1.35.33A4.13,4.13,0,0,1,162,300.7a3.59,3.59,0,1,1-3.92-6,4,4,0,0,1,3-.56l-.15,1.45A2.59,2.59,0,0,0,158.82,295.83Z"/><path id="_Compound_Path_2" data-name=" Compound Path 2" class="cls-3" d="M169.17,293.11l1.26,1.89-1.33.88L167.86,294,163,291.45l1.34-.88,3.25,1.64-.28-3.61,1.33-.89Z"/><path id="_Compound_Path_3" data-name=" Compound Path 3" class="cls-3" d="M176,282.83l.72,1.11-2.88,1.91.95,1.44,2.66-1.75.73,1.1-2.65,1.76,1.47,2.23-1.33.88-3.89-5.88Z"/><path id="_Compound_Path_4" data-name=" Compound Path 4" class="cls-3" d="M183.8,277.69l.72,1.09-3.14,2.09.84,1.28,2.83-1.88.73,1.1L183,283.25l.87,1.3,3.24-2.15.72,1.1-4.56,3-3.9-5.88Z"/><path id="_Compound_Path_5" data-name=" Compound Path 5" class="cls-3" d="M195,278.75l-2-1.06-1.35.89,1.12,1.68-1.33.88-3.9-5.87,2.55-1.69c1.54-1,2.9-.86,3.77.44a2.32,2.32,0,0,1,.15,2.62l2.54,1.11Zm-4.13-1.27,1.23-.82a1.17,1.17,0,0,0,.48-1.77c-.44-.65-1.08-.7-1.8-.22l-1.23.82Z"/><path id="_Compound_Path_6" data-name=" Compound Path 6" class="cls-3" d="M197.36,268.69l3.13,4.72,2.52-1.67.77,1.16-3.85,2.54L196,269.57Z"/><path id="_Compound_Path_7" data-name=" Compound Path 7" class="cls-3" d="M204.52,264l3.89,5.88-1.33.88-3.89-5.88Z"/><path id="_Compound_Path_8" data-name=" Compound Path 8" class="cls-3" d="M209.54,260.62l5.36,1.88-2.5-3.77,1.26-.84,3.89,5.88-1.21.8L211,262.69l2.5,3.76-1.27.84-3.9-5.87Z"/><path id="_Compound_Path_9" data-name=" Compound Path 9" class="cls-3" d="M218.57,254.63l2.42,1,0-2.62,1.57-1-.09,4.11,4.16,1.66-1.59,1-2.68-1-.07,2.86-1.55,1,.12-4.41L217,255.66Z"/></g></g></svg>